<?xml version="1.0" encoding="UTF-8"?>
<svg version="1.1" xmlns="http://www.w3.org/2000/svg" width="500" height="500">
<path d="M0 0 C165 0 330 0 500 0 C500 165 500 330 500 500 C335 500 170 500 0 500 C0 335 0 170 0 0 Z " fill="#FEFEFE" transform="translate(0,0)"/>
<path d="M0 0 C5.81512607 20.24904746 -0.49467363 44.87543701 -10 63 C-12.09184821 66.5719295 -14.38724286 69.79246887 -17 73 C-17.71671875 73.90234375 -18.4334375 74.8046875 -19.171875 75.734375 C-27.6766439 85.79557219 -39.57035939 94.22613267 -52.4375 97.625 C-53.32308594 97.86476563 -54.20867187 98.10453125 -55.12109375 98.3515625 C-61.54265868 99.7979394 -67.76118973 100.18216071 -74.3125 100.1875 C-75.12267578 100.19974609 -75.93285156 100.21199219 -76.76757812 100.22460938 C-78.84639427 100.22980209 -80.92482241 100.12305073 -83 100 C-83.66 99.34 -84.32 98.68 -85 98 C-84.35675781 97.48953125 -83.71351563 96.9790625 -83.05078125 96.453125 C-63.83815118 80.99531707 -47.45051374 63.72693053 -33.6875 43.25 C-33.29095215 42.66041504 -32.8944043 42.07083008 -32.48583984 41.46337891 C-29.39707519 36.7828423 -26.67145942 31.92868465 -24 27 C-24.34667725 27.42708252 -24.69335449 27.85416504 -25.05053711 28.29418945 C-27.88337121 31.78360041 -30.7179124 35.27160446 -33.5546875 38.7578125 C-35.5273635 41.18316348 -37.49153199 43.61402239 -39.4453125 46.0546875 C-44.84458536 52.76891243 -50.59855007 59.08135738 -56.48144531 65.36816406 C-58.45532301 67.48928923 -60.40410231 69.63260444 -62.3527832 71.77685547 C-68.98260686 79.0635217 -75.74087992 86.05458508 -83.23828125 92.45703125 C-84.89815811 93.91080366 -86.45933981 95.42141586 -88 97 C-88.99 96.67 -89.98 96.34 -91 96 C-92.1328125 93.234375 -92.1328125 93.234375 -93.125 89.75 C-93.45757812 88.61046875 -93.79015625 87.4709375 -94.1328125 86.296875 C-97.88154877 72.04492268 -98.07609712 56.16004306 -91 43 C-90.33097656 41.68708984 -90.33097656 41.68708984 -89.6484375 40.34765625 C-79.34610026 21.67107281 -60.92917278 9.44391779 -40.828125 3.52197266 C-27.20667604 -0.24306447 -14.02298997 -0.24545425 0 0 Z " fill="#3BB54B" transform="translate(323,146)"/>
<path d="M0 0 C2.35554874 -0.02726461 4.71077399 -0.04696501 7.06640625 -0.0625 C8.37810791 -0.07410156 9.68980957 -0.08570313 11.04125977 -0.09765625 C26.65158258 0.28742726 41.75293331 6.79052598 52.890625 17.72265625 C60.74101815 26.1981733 68.11439057 36.30115063 68.1328125 48.3359375 C68.13410156 49.15320313 68.13539063 49.97046875 68.13671875 50.8125 C68.13285156 51.658125 68.12898438 52.50375 68.125 53.375 C68.12886719 54.21289062 68.13273437 55.05078125 68.13671875 55.9140625 C68.12968189 60.38950693 67.90387448 64.59540529 67 69 C66.34 69 65.68 69 65 69 C63.66015625 67.0859375 63.66015625 67.0859375 62.0625 64.375 C51.29137979 47.07927925 37.14072348 32.38238454 21 20 C24.10227163 24.07126204 27.52832634 27.57167242 31.1875 31.125 C36.0655687 35.93354753 40.56108513 40.87916694 44.8203125 46.25390625 C47.1759102 49.22162164 49.61395171 52.10862915 52.0625 55 C56.65200255 60.48729257 60.87960987 66.15318943 65 72 C57.84425983 76.77049345 46.3430622 75.84301428 38 75 C26.57776378 72.17922627 16.77378583 64.50935318 10 55 C2.16427295 41.8902259 -0.639715 29.35513434 -0.25 14.1875 C-0.22986774 12.80145863 -0.21162906 11.41538842 -0.1953125 10.02929688 C-0.14870816 6.68543573 -0.08329751 3.34311368 0 0 Z " fill="#3BB54C" transform="translate(156,172)"/>
<path d="M0 0 C3.77482849 1.45960035 5.74938409 3.62407613 8 7 C8 7.99 8 8.98 8 10 C4.75 10.75 4.75 10.75 1 11 C-0.3743291 9.70896357 -1.70896357 8.3743291 -3 7 C-6.60146865 6.39975523 -8.27859404 6.54437518 -11.375 8.5 C-13.61738129 11.94981737 -13.66575147 15.05248539 -13 19 C-11.27032287 22.74547604 -11.27032287 22.74547604 -8 25 C-4.14483246 25.25142397 -1.16348085 25.37261063 2 23 C2.66 21.35 3.32 19.7 4 18 C-0.29 18 -4.58 18 -9 18 C-9 16.68 -9 15.36 -9 14 C-2.4 14 4.2 14 11 14 C11 19.61 11 25.22 11 31 C9.35 31 7.7 31 6 31 C6 29.35 6 27.7 6 26 C5.34 26 4.68 26 4 26 C3.7525 26.61875 3.505 27.2375 3.25 27.875 C1.74115593 30.44003491 0.72426105 30.89478377 -2 32 C-6.68683808 32.73285105 -10.14366361 32.44402628 -14.375 30.25 C-18.51724621 26.69950325 -20.67021976 23.8553125 -21.30859375 18.328125 C-21.69942986 8.99543255 -21.69942986 8.99543255 -18.1875 4.875 C-12.62743617 -0.64387817 -7.57463532 -0.83050823 0 0 Z " fill="#424242" transform="translate(158,255)"/>
<path d="M0 0 C3.77156782 1.4783392 5.74489545 3.61734317 8 7 C8 8.32 8 9.64 8 11 C5.3125 11.8125 5.3125 11.8125 2 12 C0.31237149 10.3545622 -1.3540349 8.68711423 -3 7 C-6.08559301 6.33278464 -6.08559301 6.33278464 -9 7 C-11.03667615 8.54506466 -11.86073078 9.72146156 -13 12 C-13.37677003 16.99220285 -13.07396361 19.98020143 -10 24 C-7.19084526 25.40457737 -5.11189466 25.24895157 -2 25 C1.20568604 23.21906331 2.60812281 21.36370321 4 18 C5.98 18 7.96 18 10 18 C10.75 19.625 10.75 19.625 11 22 C8.60203298 26.35186607 6.06686399 30.08316908 1.14453125 31.5546875 C-4.01016744 32.62506209 -9.05041322 32.84841145 -13.8125 30.375 C-17.42066635 27.68656232 -19.15892977 26.12399732 -21 22 C-21.74978303 16.37276239 -21.80003383 11.65932943 -19.3125 6.5 C-18.549375 5.675 -17.78625 4.85 -17 4 C-16.34 3.21625 -15.68 2.4325 -15 1.625 C-10.17909533 -0.98632336 -5.35528681 -0.73191335 0 0 Z " fill="#444444" transform="translate(286,255)"/>
<path d="M0 0 C2.87305972 1.40460697 4.74510999 2.74510999 7 5 C7.4140625 8.0390625 7.4140625 8.0390625 7.625 11.625 C7.69976562 12.81351562 7.77453125 14.00203125 7.8515625 15.2265625 C7.92503906 16.59941406 7.92503906 16.59941406 8 18 C8.99 18.33 9.98 18.66 11 19 C11.33 19.99 11.66 20.98 12 22 C10.12356239 23.87643761 7.50194299 23.17984987 5.0078125 23.23046875 C3 23 3 23 0 21 C-0.66 21.66 -1.32 22.32 -2 23 C-4.05859375 23.265625 -4.05859375 23.265625 -6.4375 23.25 C-7.61119141 23.25773437 -7.61119141 23.25773437 -8.80859375 23.265625 C-11 23 -11 23 -14 21 C-14.5625 17.625 -14.5625 17.625 -14 14 C-9.68792783 9.90353144 -5.69113347 9.39249196 0 9 C0.33 8.01 0.66 7.02 1 6 C-1.91634129 5.7497843 -1.91634129 5.7497843 -5 6 C-5.99 7.485 -5.99 7.485 -7 9 C-10.125 9.1875 -10.125 9.1875 -13 9 C-13.33 8.01 -13.66 7.02 -14 6 C-9.0824468 0.95303751 -7.16990717 -0.4860954 0 0 Z " fill="#464646" transform="translate(312,263)"/>
<path d="M0 0 C2.70552388 2.19823815 4.44778333 3.89556667 6 7 C6 8.98 6 10.96 6 13 C0.72 13 -4.56 13 -10 13 C-9.67 14.32 -9.34 15.64 -9 17 C-2.68731397 17.37552165 -2.68731397 17.37552165 3 15 C3.99 15.66 4.98 16.32 6 17 C5.08486681 19.28783297 4.34515354 20.73449728 2.375 22.25 C-1.85186238 23.58479865 -5.85869919 23.80977068 -10.00390625 22.2421875 C-13.58811469 20.34158428 -15.54699919 18.74901624 -17 15 C-17.69608513 10.47544663 -17.61383227 7.0303613 -15.25 3.0625 C-10.41431881 -1.37020776 -6.22454734 -1.75308107 0 0 Z " fill="#484848" transform="translate(209,264)"/>
<path d="M0 0 C3.6578218 2.03993908 5.66946174 3.50419262 8 7 C8 9.31 8 11.62 8 14 C2.72 14 -2.56 14 -8 14 C-7.01 15.32 -6.02 16.64 -5 18 C-2.01670793 18.26652617 -2.01670793 18.26652617 1.1875 17.75 C2.27417969 17.62109375 3.36085937 17.4921875 4.48046875 17.359375 C5.31191406 17.24078125 6.14335937 17.1221875 7 17 C7 18.32 7 19.64 7 21 C3.64041367 23.93963804 0.42659113 24.53563208 -4.0078125 24.3515625 C-8.40859302 23.57495417 -11.14364308 21.05617353 -13.875 17.6875 C-15.3877643 14.07367417 -15.60395126 11.89213031 -15 8 C-11.15357972 1.90378673 -7.40707404 -0.72618373 0 0 Z " fill="#474747" transform="translate(231,263)"/>
<path d="M0 0 C1.98 0 3.96 0 6 0 C6.66 0.66 7.32 1.32 8 2 C8.99 1.34 9.98 0.68 11 0 C14.7084697 -0.40456033 17.03410171 -0.63253516 20.20703125 1.4453125 C22.88866367 5.26620052 22.43464382 8.70492135 22.25 13.25 C22.23195313 14.09046875 22.21390625 14.9309375 22.1953125 15.796875 C22.14830798 17.86507395 22.07656724 19.93268441 22 22 C19.69 22 17.38 22 15 22 C14.67 16.72 14.34 11.44 14 6 C12.35 6 10.7 6 9 6 C7.00383446 7.99616554 7.59016573 11.81701963 7.4375 14.5625 C7.39431641 15.27341797 7.35113281 15.98433594 7.30664062 16.71679688 C7.20028223 18.47761912 7.09961154 20.2387832 7 22 C4.69 22 2.38 22 0 22 C0 14.74 0 7.48 0 0 Z " fill="#494949" transform="translate(241,264)"/>
<path d="M0 0 C0 2.31 0 4.62 0 7 C2.97 7 5.94 7 9 7 C9 8.65 9 10.3 9 12 C6.03 12 3.06 12 0 12 C0.33 15.96 0.66 19.92 1 24 C4.96 23.505 4.96 23.505 9 23 C9.33 24.32 9.66 25.64 10 27 C6.21239509 29.67360347 3.64202647 30.77367108 -1 30 C-3.875 28.3125 -3.875 28.3125 -6 25 C-6.4174703 20.63505737 -6.28796026 16.3705969 -6 12 C-7.32 12 -8.64 12 -10 12 C-10 10.35 -10 8.7 -10 7 C-8.68 7 -7.36 7 -6 7 C-6 5.02 -6 3.04 -6 1 C-4 0 -4 0 0 0 Z " fill="#434343" transform="translate(354,257)"/>
<path d="M0 0 C1.65 0 3.3 0 5 0 C5 0.99 5 1.98 5 3 C5.66 3 6.32 3 7 3 C7 2.34 7 1.68 7 1 C9.79870027 -0.39935013 11.90498792 -0.25265405 15 0 C17.25738505 1.55681728 17.86684202 2.57631553 18.6875 5.1875 C18.790625 5.785625 18.89375 6.38375 19 7 C17.02 7.33 15.04 7.66 13 8 C12.67 7.34 12.34 6.68 12 6 C10.35 6.33 8.7 6.66 7 7 C6.67 11.95 6.34 16.9 6 22 C4.02 22 2.04 22 0 22 C0 14.74 0 7.48 0 0 Z " fill="#414141" transform="translate(325,264)"/>
<path d="M0 0 C1.65 0 3.3 0 5 0 C5 0.99 5 1.98 5 3 C5.66 3 6.32 3 7 3 C7 2.34 7 1.68 7 1 C9.79870027 -0.39935013 11.90498792 -0.25265405 15 0 C17.25738505 1.55681728 17.86684202 2.57631553 18.6875 5.1875 C18.790625 5.785625 18.89375 6.38375 19 7 C17.02 7.33 15.04 7.66 13 8 C12.67 7.34 12.34 6.68 12 6 C10.35 6.33 8.7 6.66 7 7 C6.67 11.95 6.34 16.9 6 22 C4.02 22 2.04 22 0 22 C0 14.74 0 7.48 0 0 Z " fill="#414141" transform="translate(172,264)"/>
<path d="M0 0 C2.09350689 3.4019487 2.17942163 6.05272412 2 10 C1.01 10.495 1.01 10.495 0 11 C-0.33 10.34 -0.66 9.68 -1 9 C-2.24716797 9.16048828 -2.24716797 9.16048828 -3.51953125 9.32421875 C-4.60621094 9.44410156 -5.69289062 9.56398438 -6.8125 9.6875 C-7.89144531 9.81511719 -8.97039062 9.94273437 -10.08203125 10.07421875 C-13 10 -13 10 -14.88671875 8.64453125 C-16 7 -16 7 -16 5 C-10.72 5 -5.44 5 0 5 C0 3.35 0 1.7 0 0 Z " fill="#F2F2F2" transform="translate(239,272)"/>
<path d="M0 0 C-0.33 1.65 -0.66 3.3 -1 5 C-3.31 5.33 -5.62 5.66 -8 6 C-8.33 4.68 -8.66 3.36 -9 2 C-5.86501708 0.14223235 -3.62528568 -0.20140476 0 0 Z " fill="#E8E8E8" transform="translate(313,276)"/>
<path d="M0 0 C2.5625 0.1875 2.5625 0.1875 4.5625 2.1875 C4.5625 3.1775 4.5625 4.1675 4.5625 5.1875 C1.5925 5.1875 -1.3775 5.1875 -4.4375 5.1875 C-3.20220588 0.24632353 -3.20220588 0.24632353 0 0 Z " fill="#F2F2F2" transform="translate(203.4375,267.8125)"/>
<path d="M0 0 C1.67542976 0.28604898 3.34385343 0.61781233 5 1 C5.33 2.32 5.66 3.64 6 5 C3.03 5 0.06 5 -3 5 C-1 1 -1 1 0 0 Z " fill="#F8F8F8" transform="translate(226,268)"/>
<path d="M0 0 C0.33 0.66 0.66 1.32 1 2 C-0.15066237 4.28645831 -1.34179569 6.3958461 -2.6875 8.5625 C-3.04005859 9.16513672 -3.39261719 9.76777344 -3.75585938 10.38867188 C-6.45341806 14.78268429 -6.45341806 14.78268429 -9.26953125 15.90234375 C-9.84058594 15.93457031 -10.41164063 15.96679688 -11 16 C-9.32076975 12.19866558 -6.88537166 9.02917298 -4.375 5.75 C-3.95476562 5.19570312 -3.53453125 4.64140625 -3.1015625 4.0703125 C-2.07061281 2.71133337 -1.03570089 1.35536165 0 0 Z " fill="#E1F3E3" transform="translate(300,170)"/>
<path d="M0 0 C2.97 0.495 2.97 0.495 6 1 C5.67 2.32 5.34 3.64 5 5 C2.36 5 -0.28 5 -3 5 C-2.01 3.35 -1.02 1.7 0 0 Z " fill="#F2F2F2" transform="translate(307,268)"/>
</svg>
